<mxfile host="app.diagrams.net" modified="2023-08-04T20:36:05.743Z" agent="Mozilla/5.0 (Windows NT 10.0; Win64; x64) AppleWebKit/537.36 (KHTML, like Gecko) Chrome/114.0.0.0 YaBrowser/23.7.1.1140 Yowser/2.5 Safari/537.36" etag="7acArM95HeT5Mr9IbYxP" version="21.6.6" type="device">
  <diagram name="Страница 1" id="K3ItNwYofyLBLy11HV2N">
    <mxGraphModel dx="880" dy="479" grid="1" gridSize="10" guides="1" tooltips="1" connect="1" arrows="1" fold="1" page="1" pageScale="1" pageWidth="827" pageHeight="1169" math="0" shadow="0">
      <root>
        <mxCell id="0" />
        <mxCell id="1" parent="0" />
        <mxCell id="dEaifHMBSOPLh7tPT0wY-14" style="edgeStyle=orthogonalEdgeStyle;rounded=0;orthogonalLoop=1;jettySize=auto;html=1;exitX=0.5;exitY=1;exitDx=0;exitDy=0;" edge="1" parent="1" source="dEaifHMBSOPLh7tPT0wY-1" target="dEaifHMBSOPLh7tPT0wY-3">
          <mxGeometry relative="1" as="geometry" />
        </mxCell>
        <mxCell id="dEaifHMBSOPLh7tPT0wY-1" value="Start" style="ellipse;whiteSpace=wrap;html=1;" vertex="1" parent="1">
          <mxGeometry x="350" y="10" width="100" height="50" as="geometry" />
        </mxCell>
        <mxCell id="dEaifHMBSOPLh7tPT0wY-15" style="edgeStyle=orthogonalEdgeStyle;rounded=0;orthogonalLoop=1;jettySize=auto;html=1;exitX=0.5;exitY=1;exitDx=0;exitDy=0;entryX=0.5;entryY=0;entryDx=0;entryDy=0;" edge="1" parent="1" source="dEaifHMBSOPLh7tPT0wY-3" target="dEaifHMBSOPLh7tPT0wY-5">
          <mxGeometry relative="1" as="geometry" />
        </mxCell>
        <mxCell id="dEaifHMBSOPLh7tPT0wY-3" value="string array1&lt;br&gt;string array2&lt;br&gt;count = 0&lt;br&gt;i = 0" style="shape=parallelogram;perimeter=parallelogramPerimeter;whiteSpace=wrap;html=1;fixedSize=1;" vertex="1" parent="1">
          <mxGeometry x="340" y="80" width="120" height="60" as="geometry" />
        </mxCell>
        <mxCell id="dEaifHMBSOPLh7tPT0wY-8" value="yes" style="edgeStyle=orthogonalEdgeStyle;rounded=0;orthogonalLoop=1;jettySize=auto;html=1;exitX=0;exitY=0.5;exitDx=0;exitDy=0;entryX=0.5;entryY=0;entryDx=0;entryDy=0;" edge="1" parent="1" source="dEaifHMBSOPLh7tPT0wY-5" target="dEaifHMBSOPLh7tPT0wY-6">
          <mxGeometry relative="1" as="geometry" />
        </mxCell>
        <mxCell id="dEaifHMBSOPLh7tPT0wY-9" value="no" style="edgeStyle=orthogonalEdgeStyle;rounded=0;orthogonalLoop=1;jettySize=auto;html=1;exitX=1;exitY=0.5;exitDx=0;exitDy=0;entryX=0;entryY=0.5;entryDx=0;entryDy=0;" edge="1" parent="1" source="dEaifHMBSOPLh7tPT0wY-5" target="dEaifHMBSOPLh7tPT0wY-7">
          <mxGeometry relative="1" as="geometry">
            <Array as="points">
              <mxPoint x="470" y="270" />
            </Array>
          </mxGeometry>
        </mxCell>
        <mxCell id="dEaifHMBSOPLh7tPT0wY-5" value="array1[i].length &amp;lt;= 3" style="rhombus;whiteSpace=wrap;html=1;" vertex="1" parent="1">
          <mxGeometry x="330" y="160" width="140" height="80" as="geometry" />
        </mxCell>
        <mxCell id="dEaifHMBSOPLh7tPT0wY-6" value="array2[count] = array1[i]&lt;br&gt;count = count + 1" style="rounded=0;whiteSpace=wrap;html=1;" vertex="1" parent="1">
          <mxGeometry x="140" y="240" width="170" height="60" as="geometry" />
        </mxCell>
        <mxCell id="dEaifHMBSOPLh7tPT0wY-11" value="" style="edgeStyle=orthogonalEdgeStyle;rounded=0;orthogonalLoop=1;jettySize=auto;html=1;" edge="1" parent="1" source="dEaifHMBSOPLh7tPT0wY-7" target="dEaifHMBSOPLh7tPT0wY-5">
          <mxGeometry relative="1" as="geometry">
            <Array as="points">
              <mxPoint x="600" y="200" />
            </Array>
          </mxGeometry>
        </mxCell>
        <mxCell id="dEaifHMBSOPLh7tPT0wY-7" value="i = i + 1" style="rounded=0;whiteSpace=wrap;html=1;" vertex="1" parent="1">
          <mxGeometry x="540" y="240" width="120" height="60" as="geometry" />
        </mxCell>
      </root>
    </mxGraphModel>
  </diagram>
</mxfile>
